<svg t="1653898468643" class="icon" viewBox="0 0 1024 1024" version="1.1" xmlns="http://www.w3.org/2000/svg" p-id="12491" width="200" height="200"><path d="M550 786.2c-88.6 0-160.7-72.1-160.7-160.7S461.4 464.8 550 464.8s160.7 72.1 160.7 160.7S638.6 786.2 550 786.2z m0-252.4c-50.5 0-91.7 41.1-91.7 91.7 0 50.5 41.1 91.7 91.7 91.7 50.5 0 91.7-41.1 91.7-91.7-0.1-50.6-41.2-91.7-91.7-91.7z" p-id="12492"></path><path d="M632.8 728.5l96.5 96.5" p-id="12493"></path><path d="M729.3 859.5c-8.8 0-17.7-3.4-24.4-10.1L608.4 753c-13.5-13.5-13.5-35.3 0-48.8s35.3-13.5 48.8 0l96.5 96.4c13.5 13.5 13.5 35.3 0 48.8-6.8 6.7-15.6 10.1-24.4 10.1z" p-id="12494"></path><path d="M916.4 947.6H109.6c-19.1 0-34.5-15.5-34.5-34.5V106.3c0-19.1 15.5-34.5 34.5-34.5s34.5 15.5 34.5 34.5v772.2h772.2c19.1 0 34.5 15.5 34.5 34.5 0.1 19.1-15.3 34.6-34.4 34.6z" p-id="12495"></path><path d="M258.4 744.1c-1.4 0-2.8-0.1-4.3-0.3-18.9-2.3-32.3-19.5-30-38.5 14.6-119 98-344.2 308.9-344.2 166.9 0 263.5-74.6 287.1-221.7 3-18.8 20.7-31.7 39.6-28.6 18.8 3 31.6 20.7 28.6 39.6-29 180.4-155.1 279.8-355.3 279.8-202.5 0-238.9 272-240.4 283.6-2.2 17.5-17 30.3-34.2 30.3z" p-id="12496"></path></svg>