<svg t="1653897938445" class="icon" viewBox="0 0 1024 1024" version="1.1" xmlns="http://www.w3.org/2000/svg" p-id="11346" width="200" height="200"><path d="M1024 512c0-54.992593-68.266667-106.192593-174.459259-140.325926 51.2-100.503704 64.474074-182.044444 24.651852-221.866667-39.822222-39.822222-123.259259-26.548148-221.866667 24.651852C618.192593 68.266667 566.992593 0 512 0s-106.192593 68.266667-140.325926 174.459259C273.066667 123.259259 189.62963 109.985185 149.807407 149.807407 109.985185 189.62963 123.259259 273.066667 174.459259 371.674074 68.266667 405.807407 0 457.007407 0 512s68.266667 106.192593 174.459259 140.325926C123.259259 750.933333 109.985185 834.37037 149.807407 874.192593c39.822222 39.822222 123.259259 26.548148 221.866667-24.651852C405.807407 955.733333 455.111111 1024 512 1024c54.992593 0 106.192593-68.266667 140.325926-174.459259 100.503704 51.2 182.044444 64.474074 221.866667 24.651852 39.822222-39.822222 26.548148-123.259259-24.651852-221.866667 106.192593-34.133333 174.459259-85.333333 174.459259-140.325926zM47.407407 512c0-39.822222 56.888889-75.851852 147.911112-102.4 20.859259 36.02963 43.614815 70.162963 70.162962 102.4-24.651852 32.237037-49.303704 66.37037-70.162962 102.4C104.296296 587.851852 47.407407 551.822222 47.407407 512z m280.651852-75.851852l-34.133333 39.822222c-18.962963-24.651852-37.925926-51.2-54.992593-77.748148 30.340741-7.585185 62.577778-11.377778 92.918519-15.17037-1.896296 17.066667-1.896296 34.133333-3.792593 53.096296z m3.792593 204.8c-30.340741-3.792593-62.577778-9.481481-92.918519-15.17037 17.066667-26.548148 36.02963-51.2 54.992593-75.851852l34.133333 39.822222c1.896296 15.17037 1.896296 34.133333 3.792593 51.2zM182.044444 840.059259c-28.444444-28.444444-13.274074-94.814815 32.237037-178.251852 39.822222 9.481481 79.644444 17.066667 121.362963 22.755556 5.688889 41.718519 13.274074 81.540741 22.755556 121.362963-81.540741 49.303704-147.911111 62.577778-176.355556 34.133333z m155.496297-502.518518c-41.718519 5.688889-81.540741 13.274074-121.362963 22.755555-47.407407-83.437037-60.681481-149.807407-32.237037-178.251852 28.444444-28.444444 94.814815-13.274074 178.251852 32.237037-11.377778 41.718519-18.962963 81.540741-24.651852 123.25926z m303.407407-5.688889c-17.066667-1.896296-34.133333-1.896296-53.096296-3.792593l-39.822222-34.133333c24.651852-18.962963 51.2-37.925926 75.851851-54.992593 7.585185 28.444444 13.274074 60.681481 17.066667 92.918519zM512 47.407407c39.822222 0 75.851852 56.888889 102.4 147.911112-32.237037 18.962963-66.37037 43.614815-102.4 70.162962-32.237037-24.651852-66.37037-49.303704-102.4-70.162962 24.651852-91.022222 62.577778-147.911111 102.4-147.911112z m-113.777778 191.525926c26.548148 17.066667 51.2 36.02963 77.748148 54.992593L436.148148 328.059259c-17.066667 1.896296-36.02963 1.896296-53.096296 3.792593 3.792593-32.237037 9.481481-64.474074 15.17037-92.918519z m-15.17037 453.214815c17.066667 1.896296 34.133333 3.792593 53.096296 3.792593l39.822222 34.133333c-24.651852 18.962963-51.2 37.925926-75.851851 54.992593-7.585185-30.340741-13.274074-62.577778-17.066667-92.918519z m128.948148 284.444445c-39.822222 0-75.851852-56.888889-102.4-147.911112 36.02963-20.859259 70.162963-43.614815 102.4-70.162962 32.237037 24.651852 66.37037 49.303704 102.4 70.162962-26.548148 91.022222-62.577778 147.911111-102.4 147.911112z m111.881481-191.525926c-26.548148-17.066667-51.2-36.02963-77.748148-54.992593l39.822223-34.133333c17.066667-1.896296 34.133333-1.896296 53.096296-3.792593-1.896296 30.340741-7.585185 62.577778-15.170371 92.918519zM650.42963 568.888889c-26.548148 28.444444-53.096296 54.992593-81.540741 81.540741-18.962963 0-37.925926 1.896296-56.888889 1.896296s-37.925926 0-56.888889-1.896296c-28.444444-26.548148-54.992593-53.096296-81.540741-81.540741 0-18.962963-1.896296-37.925926-1.896296-56.888889s0-37.925926 1.896296-56.888889c26.548148-28.444444 53.096296-54.992593 81.540741-81.540741 18.962963 0 37.925926-1.896296 56.888889-1.896296s37.925926 0 56.888889 1.896296c13.274074 13.274074 28.444444 26.548148 41.718518 39.822223 13.274074 13.274074 26.548148 26.548148 39.822223 41.718518 0 18.962963 1.896296 37.925926 1.896296 56.888889s-1.896296 37.925926-1.896296 56.888889z m189.629629-386.844445c28.444444 28.444444 13.274074 94.814815-32.237037 178.251852-39.822222-9.481481-79.644444-17.066667-121.362963-22.755555-5.688889-41.718519-13.274074-81.540741-22.755555-121.362963 81.540741-47.407407 147.911111-62.577778 176.355555-34.133334z m-109.985185 293.925926L695.940741 436.148148c-1.896296-17.066667-1.896296-34.133333-3.792593-53.096296 32.237037 3.792593 64.474074 9.481481 92.918519 15.17037-17.066667 26.548148-36.02963 53.096296-54.992593 77.748148z m0 72.05926c18.962963 24.651852 37.925926 51.2 54.992593 77.748148-30.340741 5.688889-62.577778 11.377778-92.918519 15.17037 1.896296-17.066667 1.896296-34.133333 3.792593-53.096296l34.133333-39.822222z m109.985185 292.029629c-28.444444 28.444444-94.814815 13.274074-178.251852-32.237037 9.481481-39.822222 17.066667-79.644444 22.755556-121.362963 41.718519-5.688889 81.540741-13.274074 121.362963-22.755555 49.303704 81.540741 62.577778 147.911111 34.133333 176.355555z m-11.377778-225.659259c-20.859259-36.02963-43.614815-70.162963-70.162962-102.4 26.548148-34.133333 49.303704-68.266667 70.162962-102.4 91.022222 24.651852 147.911111 62.577778 147.911112 102.4s-56.888889 75.851852-147.911112 102.4zM512 464.592593c-17.066667 0-34.133333 7.585185-41.718519 22.755555-9.481481 15.17037-9.481481 32.237037 0 47.407408s24.651852 22.755556 41.718519 22.755555c24.651852-1.896296 43.614815-20.859259 43.614815-47.407407s-18.962963-43.614815-43.614815-45.511111z" p-id="11347"></path></svg>