<svg t="1653895801722" class="icon" viewBox="0 0 1024 1024" version="1.1" xmlns="http://www.w3.org/2000/svg" p-id="3051" width="200" height="200"><path d="M640.854717 951.920358c-0.684592 0-1.37123-0.023536-2.062985-0.070608-13.582343-0.932232-24.744567-10.904351-27.206642-24.278963L462.292901 152.678308 334.351997 687.772282l-0.37453 1.047866c-5.1503 14.403035-18.358113 23.932062-33.649378 24.275893-0.284479 0.007163-0.569982 0.010233-0.853437 0.010233-14.56574 0-27.499307-8.411577-33.407877-21.700231l-75.443249-144.317896-0.36225-0.884137c-3.53143-8.629541-11.836583-14.205537-21.159926-14.205537L69.249177 531.998473c-11.30344 0-20.466124-9.163707-20.466124-20.466124 0-11.30344 9.162684-20.466124 20.466124-20.466124l99.851149 0c25.666566 0 48.569182 15.143908 58.640562 38.671765l70.202898 134.292566L435.486372 88.774883l0.342808-0.982374c4.465708-12.771885 16.522302-20.632923 30.013571-19.540032 13.423731 1.078565 24.040533 10.67206 26.473955 23.898293L644.328841 881.162828l130.023332-344.547197c9.063423-27.267017 34.375925-45.550429 63.154365-45.550429l121.363092 0c11.30344 0 20.466124 9.162684 20.466124 20.466124 0 11.302417-9.162684 20.466124-20.466124 20.466124L837.507562 531.99745c-11.148921 0-20.945031 7.125281-24.3772 17.730826l-0.323365 0.923022L668.918889 931.937235C664.74994 943.958012 653.470035 951.919335 640.854717 951.920358z" p-id="3052"></path></svg>