<svg t="1653896842985" class="icon" viewBox="0 0 1024 1024" version="1.1" xmlns="http://www.w3.org/2000/svg" p-id="4659" width="200" height="200"><path d="M544.17 640.73h255.71c17.58 0 31.96-14.38 31.96-31.96s-14.39-31.96-31.96-31.96H544.17c-17.58 0-31.97 14.39-31.97 31.96 0 17.58 14.38 31.96 31.97 31.96zM275.34 763.1c12.43 12.43 32.77 12.43 45.21 0l135.61-135.61c12.43-12.43 12.43-32.77 0-45.2s-32.78-12.43-45.2 0l-113.02 113-37.67-37.67c-12.43-12.43-32.78-12.43-45.21 0s-12.43 32.77 0 45.2l60.28 60.28z m268.83 5.48h255.71c17.58 0 31.96-14.38 31.96-31.96s-14.39-31.96-31.96-31.96H544.17c-17.58 0-31.97 14.38-31.97 31.96s14.38 31.96 31.97 31.96z m0 0" p-id="4660"></path><path d="M917.08 161.26H768.1V129.3c0-17.58-14.38-31.96-31.96-31.96s-31.96 14.38-31.96 31.96v31.96H320.23V129.3c0-17.58-14.39-31.96-31.96-31.96-17.58 0-31.96 14.38-31.96 31.96v31.96H107.32c-23.44 0-42.62 19.18-42.62 42.62v681.9c0 23.44 19.18 42.62 42.62 42.62h809.76c23.44 0 42.62-19.18 42.62-42.62v-681.9c0-23.44-19.18-42.62-42.62-42.62z m-21.31 681.91c0 11.72-9.59 21.31-21.31 21.31H149.94c-11.72 0-21.31-9.59-21.31-21.31V480.9h767.14v362.27z m0-426.19H128.63V246.5c0-11.72 9.59-21.31 21.31-21.31H256.3v31.96c0 17.58 14.38 31.96 31.96 31.96s31.96-14.38 31.96-31.96v-31.96h383.94v31.96c0 17.58 14.38 31.96 31.96 31.96s31.96-14.38 31.96-31.96v-31.96h106.36c11.72 0 21.31 9.59 21.31 21.31v170.48z m0 0" p-id="4661"></path></svg>